# xmcd
#
# Track frame offsets: 
#        150
#        28145
#        64043
#        81711
#        117330
#        137709
#        152059
#        194113
#        218493
#
# Disc length: 3261 seconds
#
# Revision: 0
# Processed by: cddbd v1.5.2PL0 Copyright (c) Steve Scherf et al.
# Submitted via: ExactAudioCopyFreeDBPlugin 1.0
#
DISCID=860cbb09
DTITLE=Ralph de Jongh - Breath of Live
DYEAR=2017
DGENRE=Rock
TTITLE0=A Better, Not A Bitter Man
TTITLE1=Spinning 'Round
TTITLE2=Throw Out The Bottles
TTITLE3=Kneel To Your True Self
TTITLE4=Already There
TTITLE5=Be
TTITLE6=Yogi Bear
TTITLE7=Stars In The Sun
TTITLE8=Goodnight Girl
EXTD=
EXTT0=
EXTT1=
EXTT2=
EXTT3=
EXTT4=
EXTT5=
EXTT6=
EXTT7=
EXTT8=
PLAYORDER=
